# xmcd
#
# Track frame offsets: 
#        150
#        12082
#        24127
#        37487
#        50165
#        62160
#        74897
#        86297
#        99997
#        110350
#        120782
#
# Disc length: 1788 seconds
#
# Revision: 1
# Processed by: cddbd v1.5.2PL0 Copyright (c) Steve Scherf et al.
# Submitted via: ExactAudioCopy v0.99pb4
#
DISCID=8c06fa0b
DTITLE=Sam and Dave - Soul Men
DYEAR=1967
DGENRE=Soul
TTITLE0=Soul Man
TTITLE1=May I Baby
TTITLE2=Broke Down Piece of Man
TTITLE3=Let It Be Me
TTITLE4=Hold It Baby
TTITLE5=I'm With You
TTITLE6=Don't Knock It
TTITLE7=Just Keep Holding On
TTITLE8=The Good Runs the Bad Way
TTITLE9=Rich Kind of Poverty
TTITLE10=I've Seen What Loneliness Can Do
EXTD=
EXTT0=
EXTT1=
EXTT2=
EXTT3=
EXTT4=
EXTT5=
EXTT6=
EXTT7=
EXTT8=
EXTT9=
EXTT10=
PLAYORDER=
